<svg xmlns="http://www.w3.org/2000/svg" version="1.1" xmlns:xlink="http://www.w3.org/1999/xlink" xmlns:svgjs="http://svgjs.com/svgjs" width="45" height="45"><svg width="45" height="45" viewBox="0 0 45 45" fill="none" xmlns="http://www.w3.org/2000/svg">
<circle cx="22.5" cy="22.5" r="22.5" fill="#5B4595"></circle>
<circle cx="22.5" cy="22.5" r="16.5" fill="#F9BA29"></circle>
<path d="M23.21 21.69H30.62V32.19C29.46 32.57 28.29 32.85 27.11 33.03C25.93 33.21 24.59 33.3 23.09 33.3C20.87 33.3 19 32.86 17.48 31.98C15.96 31.08 14.8 29.81 14 28.17C13.22 26.51 12.83 24.55 12.83 22.29C12.83 20.05 13.27 18.11 14.15 16.47C15.03 14.83 16.29 13.56 17.93 12.66C19.59 11.74 21.59 11.28 23.93 11.28C25.13 11.28 26.26 11.39 27.32 11.61C28.4 11.83 29.4 12.14 30.32 12.54L29.3 14.88C28.54 14.54 27.68 14.25 26.72 14.01C25.78 13.77 24.8 13.65 23.78 13.65C22.08 13.65 20.62 14 19.4 14.7C18.18 15.4 17.25 16.4 16.61 17.7C15.97 18.98 15.65 20.51 15.65 22.29C15.65 23.99 15.92 25.5 16.46 26.82C17.02 28.12 17.89 29.14 19.07 29.88C20.25 30.6 21.8 30.96 23.72 30.96C24.36 30.96 24.92 30.94 25.4 30.9C25.9 30.84 26.35 30.77 26.75 30.69C27.17 30.61 27.56 30.53 27.92 30.45V24.09H23.21V21.69Z" fill="white"></path>
</svg><style>@media (prefers-color-scheme: light) { :root { filter: none; } }
</style></svg>